PathFileType  4	(X/Y/Z) C:\Users\antoi\Documents\MyRepositories\mobilecap\ResultsAnalysis
DataRate	CameraRate	NumFrames	NumMarkers	Units	OrigDataRate	OrigDataStartFrame	OrigNumFrames
100.0	100.0	4	51	mm	100.0	1	131
Frame#	Time	r_knee			r_shank_antsup			r_ankle			r_calc			r_5meta			r_toe			L_knee			L_shank_antsup			L_ankle			L_calc			L_5meta			L_toe			r_sh2			r_sh3			r_sh4			L_sh2			L_sh3			r_thigh1			r_thigh2			r_thigh3			r_thigh4			r_thigh5			L_thigh1			L_thigh2			L_thigh3			L_thigh4			r.ASIS			r.PSIS			L.ASIS			L.PSIS			C7			R_Shoulder			L_Shoulder			R_Sternum			L_Sternum			R_humerus			R_elbow_med			R_elbow_lat			R_forearm			R_wrist_radius			R_wrist_ulna			L_humerus			L_elbow_med			L_elbow_lat			L_forearm			L_wrist_radius			L_wrist_ulna			R_HJC			L_HJC			R_HJC_reg			L_HJC_reg			
		X1	Y1	Z1	X2	Y2	Z2	X3	Y3	Z3	X4	Y4	Z4	X5	Y5	Z5	X6	Y6	Z6	X7	Y7	Z7	X8	Y8	Z8	X9	Y9	Z9	X10	Y10	Z10	X11	Y11	Z11	X12	Y12	Z12	X13	Y13	Z13	X14	Y14	Z14	X15	Y15	Z15	X16	Y16	Z16	X17	Y17	Z17	X18	Y18	Z18	X19	Y19	Z19	X20	Y20	Z20	X21	Y21	Z21	X22	Y22	Z22	X23	Y23	Z23	X24	Y24	Z24	X25	Y25	Z25	X26	Y26	Z26	X27	Y27	Z27	X28	Y28	Z28	X29	Y29	Z29	X30	Y30	Z30	X31	Y31	Z31	X32	Y32	Z32	X33	Y33	Z33	X34	Y34	Z34	X35	Y35	Z35	X36	Y36	Z36	X37	Y37	Z37	X38	Y38	Z38	X39	Y39	Z39	X40	Y40	Z40	X41	Y41	Z41	X42	Y42	Z42	X43	Y43	Z43	X44	Y44	Z44	X45	Y45	Z45	X46	Y46	Z46	X47	Y47	Z47	X48	Y48	Z48	X49	Y49	Z49	X50	Y50	Z50	X51	Y51	Z51	

1	0.00000000	-47.01940	483.18294	-84.70784	4.00342	462.77524	-91.10225	111.00959	112.50803	-122.96718	80.98201	54.03648	-177.43892	253.79103	119.30622	-83.01529	273.50401	166.10662	-133.83326	-361.36921	468.89556	-386.03992	-368.11968	376.15555	-392.39841	-537.49435	100.43133	-324.41578	-605.77112	69.84471	-269.33873	-428.65373	36.89920	-346.90572	-383.24541	53.82698	-294.26054	56.44189	360.64088	-107.79851	-55.87541	428.02659	-54.54278	-4.93276	323.68094	-56.09246	-447.22472	419.20506	-400.54390	-497.08752	308.09644	-389.18653	-89.40159	775.14452	-154.24528	-37.69677	677.62211	-145.09392	-40.58702	655.83991	-79.49107	-139.46941	758.97262	-54.78814	-88.67283	657.05082	-46.82282	-234.33428	771.75450	-416.78984	-268.33645	634.16560	-415.07211	-345.22288	798.09376	-408.60139	-377.64450	666.25792	-387.35115	-135.85934	919.08923	-127.18400	-337.57562	953.56169	-169.30171	-167.27757	908.08184	-361.53226	-351.44297	961.02384	-266.14994	-281.45154	1428.19447	-249.76984	-237.06736	1389.33628	-83.82848	-210.37394	1375.50867	-405.73417	-170.95144	1326.99829	-225.08019	-168.13690	1323.47163	-263.36649	-323.34480	1168.92868	2.58858	-407.93488	1105.69811	-37.23793	-387.31852	1099.94783	21.27164	-386.78893	959.27175	51.28639	-392.08059	851.68138	47.01339	-432.54312	866.91654	73.60214	-165.85966	1149.72304	-477.74434	-184.80537	1034.25324	-428.51220	-166.86679	1042.31608	-486.85264	-24.55713	1001.66289	-487.35113	76.38484	977.06890	-453.37469	62.69706	938.88103	-472.17190	-216.59854	837.89289	-148.15373	-256.74376	843.69579	-334.45885	-208.88691	834.86113	-155.68496	-230.96571	846.74265	-309.88105	
2	0.01000000	-29.64412	481.55660	-85.04624	21.21197	460.14244	-91.32522	119.99128	107.82505	-123.22276	89.11900	50.66146	-177.97357	262.69701	112.01157	-82.45947	283.79173	158.15347	-133.33851	-349.85376	466.87136	-385.09801	-358.73550	374.26501	-391.74149	-535.55954	103.13303	-324.70632	-604.48351	73.88059	-269.75514	-428.43696	36.67415	-347.05191	-382.37841	52.93561	-294.43461	71.43838	357.11651	-108.26248	-39.46837	426.51099	-54.89382	9.37768	321.16035	-56.59743	-436.49117	419.48395	-399.67701	-489.54594	309.79323	-388.79317	-73.91139	774.32994	-152.72105	-21.19551	677.42042	-144.17359	-24.14484	655.46470	-78.53578	-123.94305	757.15680	-53.30872	-72.14326	655.72016	-46.06760	-221.48686	769.11829	-415.65959	-256.05309	631.62727	-413.90955	-331.72607	795.56973	-406.62451	-364.95108	664.23043	-385.09831	-120.54032	916.65690	-126.48900	-322.42451	951.12550	-167.99906	-153.13080	905.05998	-360.90886	-336.68273	958.33663	-264.77223	-266.95272	1425.78628	-247.97408	-222.49050	1386.57022	-81.98698	-197.32783	1372.97019	-404.24402	-157.19954	1324.06690	-223.42165	-153.70751	1320.98929	-261.87094	-308.81098	1165.76161	3.71322	-393.11959	1102.55157	-36.55091	-372.78591	1096.77226	22.02171	-372.96538	956.23443	52.08372	-378.87298	848.65500	47.83066	-419.53090	864.07109	74.19989	-152.79496	1147.12798	-475.99266	-170.85376	1031.70259	-426.37195	-153.51039	1039.78818	-484.89206	-11.06909	999.36711	-486.16024	90.11858	974.89333	-452.76290	76.41791	936.55008	-471.50391	-201.44276	835.44717	-147.03832	-242.40971	840.78455	-333.17624	-193.80130	832.30687	-154.50037	-216.53854	843.80429	-308.80865	
3	0.02000000	-12.26489	480.06050	-85.40711	38.45832	457.53353	-91.68535	128.63374	103.32977	-123.50498	96.68278	47.85894	-178.51521	271.20953	104.29623	-82.10213	293.84321	149.67037	-133.05655	-337.98232	464.81724	-384.11589	-349.07021	372.36703	-391.10705	-533.43038	106.08731	-325.03909	-603.01089	78.31355	-270.21829	-428.14707	36.43408	-347.20020	-381.49525	52.01097	-294.63911	86.35596	353.60631	-108.81599	-22.91773	425.08754	-55.30135	23.60231	318.71815	-57.14210	-425.39700	419.84179	-398.77958	-481.70128	311.66302	-388.37597	-58.28137	773.59843	-151.16854	-4.70902	677.22249	-143.23746	-7.68766	655.04413	-77.60220	-108.29448	755.39460	-51.83229	-55.58104	654.40123	-45.34544	-208.42087	766.53009	-414.43957	-243.48793	629.12051	-412.69196	-318.05629	793.07957	-404.55281	-351.96627	662.16240	-382.78837	-105.12372	914.34531	-125.67097	-307.17819	948.78482	-166.66492	-138.80110	902.12614	-360.16734	-321.79915	955.74064	-263.36949	-252.43328	1423.43537	-246.12415	-207.86919	1383.86378	-80.10892	-184.13015	1370.53333	-402.70384	-143.26353	1321.30347	-221.74322	-139.27001	1318.59204	-260.33934	-294.05662	1162.59528	4.87294	-378.09725	1099.37679	-35.79412	-357.99745	1093.56237	22.82634	-358.79432	953.15059	52.90060	-365.26094	845.57950	48.64075	-405.97203	861.13015	74.86774	-139.80598	1144.58881	-474.28513	-157.05548	1029.17601	-424.28029	-140.32510	1037.31735	-482.98562	2.20644	996.98534	-485.01090	103.60379	972.52849	-452.17550	89.84364	934.06278	-470.85062	-186.18624	833.11350	-145.82368	-227.90006	837.95863	-331.81156	-178.59467	829.85471	-153.21114	-201.94466	840.95955	-307.63565	
4	0.03000000	5.07801	478.81361	-85.79033	55.73501	455.01840	-92.29294	136.73908	99.21522	-123.83122	103.29666	46.08399	-179.06076	279.06009	95.91055	-82.10410	303.49975	140.32063	-133.15603	-325.43742	462.71722	-383.05638	-338.85707	370.47316	-390.51550	-530.91605	109.51656	-325.46008	-601.16858	83.49948	-270.77538	-427.72005	36.16838	-347.34939	-380.58221	51.01860	-294.89848	101.13375	350.17956	-109.51833	-6.12906	423.84355	-55.78989	37.73106	316.44928	-57.74014	-413.61080	420.34703	-397.83150	-473.26808	313.85274	-387.92050	-42.40371	773.02421	-149.58896	11.73924	677.03933	-142.28813	8.79388	654.55916	-76.72558	-92.41628	753.75650	-50.37313	-38.97055	653.12536	-44.69619	-194.93961	764.03512	-413.04822	-230.38895	626.67251	-411.37912	-304.06275	790.64992	-402.32251	-338.43813	660.02308	-380.39218	-89.54406	912.26632	-124.64011	-291.76920	946.64483	-165.27568	-124.14460	899.36184	-359.21205	-306.69979	953.31400	-261.92416	-237.86765	1421.20480	-244.17920	-193.16601	1381.27851	-78.16483	-170.66166	1368.28451	-401.07394	-129.03011	1318.83895	-220.02441	-124.81665	1316.35934	-258.73971	-278.90321	1159.43962	6.09796	-362.69606	1096.15898	-34.90879	-342.74353	1090.29957	23.73248	-343.98724	949.99040	53.75173	-350.90428	842.42224	49.43698	-391.40995	858.02216	75.65315	-126.95030	1142.15760	-472.65853	-143.55262	1026.70543	-422.28175	-127.44634	1034.95628	-481.17980	15.09775	994.44621	-483.93639	116.63429	969.80864	-451.62747	102.73454	931.28399	-470.22411	-170.75747	831.00045	-144.42856	-213.08218	835.29668	-330.29763	-163.18913	827.63410	-151.72207	-187.06459	838.29306	-306.26513	
